<svg xmlns="http://www.w3.org/2000/svg" viewBox="0 0 1440 320">
  <path fill="#4741d7" fill-opacity="1" d="M0,192L21.8,176C43.6,160,87,128,131,101.3C174.5,75,218,53,262,58.7C305.5,64,349,96,393,101.3C436.4,107,480,85,524,69.3C567.3,53,611,43,655,58.7C698.2,75,742,117,785,122.7C829.1,128,873,96,916,85.3C960,75,1004,85,1047,90.7C1090.9,96,1135,96,1178,101.3C1221.8,107,1265,117,1309,122.7C1352.7,128,1396,128,1418,128L1440,128L1440,0L1418.2,0C1396.4,0,1353,0,1309,0C1265.5,0,1222,0,1178,0C1134.5,0,1091,0,1047,0C1003.6,0,960,0,916,0C872.7,0,829,0,785,0C741.8,0,698,0,655,0C610.9,0,567,0,524,0C480,0,436,0,393,0C349.1,0,305,0,262,0C218.2,0,175,0,131,0C87.3,0,44,0,22,0L0,0Z"></path>
</svg>